C:\GBW_MyPrograms\KinderuniversiteitApp\Resultaten\smurftest\Kleuter\Kleuter_v1.mot
version=1
nRows=9
nColumns=29
inDegrees=yes
endheader
                time	         pelvis_tilt	           pelvis_tx	           pelvis_ty	       hip_flexion_l	       hip_flexion_r	        knee_angle_l	        knee_angle_r	       ankle_angle_l	       ankle_angle_r	    lumbar_extension	hamstrings_r/activation	bifemsh_r/activation	glut_max_r/activation	iliopsoas_r/activation	rect_fem_r/activation	  vasti_r/activation	gastroc_r/activation	 soleus_r/activation	tib_ant_r/activation	hamstrings_l/activation	bifemsh_l/activation	glut_max_l/activation	iliopsoas_l/activation	rect_fem_l/activation	  vasti_l/activation	gastroc_l/activation	 soleus_l/activation	tib_ant_l/activation	
          0.88832351	          2.02232986	          0.46545797	          0.47565226	        -17.14271464	         19.88313059	         -5.72082146	        -24.34915909	        -17.78728482	         -7.26696142	        -12.01819824	          0.09519525	          0.05040450	          0.05000029	          0.09421166	          0.05822625	          0.05000011	          0.05000203	          0.05000031	          0.08437880	          0.05000032	          0.05000366	          0.05000042	          0.34975229	          0.19887905	          0.07329339	          0.41605357	          0.32800452	          0.05000013	
          0.89720674	          2.01960632	          0.47099388	          0.47487983	        -17.49535027	         19.59015267	         -6.30225585	        -23.45156714	        -18.18329952	         -7.79625193	        -11.96425931	          0.10766801	          0.05000221	          0.05000345	          0.08206222	          0.06974644	          0.05000016	          0.05005006	          0.05000150	          0.08210619	          0.05000034	          0.05000413	          0.05000071	          0.36850112	          0.17323206	          0.07721252	          0.39766093	          0.35783950	          0.05000009	
          0.90608998	          2.01915893	          0.47672420	          0.47411042	        -17.76081694	         19.18930747	         -7.07664822	        -22.80038764	        -18.62857279	         -8.25591229	        -11.88797824	          0.11837546	          0.05000133	          0.05000020	          0.07147963	          0.07270291	          0.05182639	          0.05000060	          0.05001029	          0.07862302	          0.05000030	          0.05001219	          0.05000022	          0.37054579	          0.15089213	          0.08105972	          0.37491978	          0.38812647	          0.05000007	
          0.91497321	          2.02174506	          0.48265844	          0.47333765	        -17.93154185	         18.66975517	         -8.06176218	        -22.45472426	        -19.12589355	         -8.61529116	        -11.78550552	          0.11319810	          0.05000020	          0.05000132	          0.06226193	          0.06432871	          0.06127605	          0.05000027	          0.06322941	          0.08065975	          0.05000028	          0.05000255	          0.05000014	          0.33456497	          0.13143306	          0.07590874	          0.34855741	          0.41563647	          0.05000004	
          0.92385645	          2.02791438	          0.48879453	          0.47256089	        -18.00307521	         18.02419671	         -9.26587172	        -22.44800923	        -19.67996205	         -8.80950898	        -11.65422798	          0.12118789	          0.12001938	          0.05000017	          0.05740110	          0.05603289	          0.05337386	          0.11680850	          0.15315731	          0.07025783	          0.05000064	          0.05000226	          0.07110634	          0.29141941	          0.11448342	          0.07235897	          0.30360738	          0.41186527	          0.05000002	
          0.93273968	          2.03669046	          0.49507376	          0.47181078	        -17.98076222	         17.30087237	        -10.66308536	        -22.55323972	        -20.28957415	         -8.80811871	        -11.50236567	          0.11482553	          0.10454174	          0.08550094	          0.05000026	          0.05000032	          0.05734037	          0.14218010	          0.20784557	          0.06119734	          0.05000045	          0.05000281	          0.06193651	          0.25383784	          0.09971961	          0.07824845	          0.26445397	          0.35875090	          0.05000002	
          0.94162292	          2.04673312	          0.50141257	          0.47114833	        -17.86895552	         16.56161831	        -12.22098186	        -22.68282436	        -20.96263815	         -8.62034487	        -11.34180207	          0.11487918	          0.09106010	          0.10064190	          0.05000017	          0.05000030	          0.09057483	          0.16139943	          0.23882867	          0.05330533	          0.05000037	          0.05000056	          0.08902794	          0.22110296	          0.08685975	          0.06815772	          0.23034980	          0.31248613	          0.05000001	
          0.95050615	          2.05694588	          0.50773918	          0.47062162	        -17.66528371	         15.82340993	        -13.92190496	        -22.82331109	        -21.71358370	         -8.33651865	        -11.18082292	          0.11852708	          0.07931708	          0.12829435	          0.05000016	          0.05000027	          0.11190585	          0.18079279	          0.27659417	          0.05000012	          0.05000304	          0.05004992	          0.10343098	          0.19849520	          0.07565829	          0.05936810	          0.20064372	          0.27218770	          0.06007158	
          0.95938939	          2.06649428	          0.51399055	          0.47024581	        -17.36704232	         15.09040982	        -15.75951141	        -22.96001328	        -22.48595114	         -8.02897708	        -11.02605623	          0.12512473	          0.06908848	          0.16898014	          0.05000011	          0.05000020	          0.12851354	          0.19813255	          0.31043679	          0.05000020	          0.05000064	          0.05000103	          0.09972209	          0.18699717	          0.06590140	          0.05430445	          0.17476857	          0.23708618	          0.09323952	
